<svg xmlns="http://www.w3.org/2000/svg" width="512" height="512" viewBox="0 0 512 512"><defs>
    <linearGradient id="gF" x1="0" y1="0" x2="1" y2="1">
      <stop offset="0" stop-color="#6366f1"/>
      <stop offset="1" stop-color="#8b5cf6"/>
    </linearGradient>
    <radialGradient id="hF" cx="0.24" cy="0.18" r="0.8">
      <stop offset="0" stop-color="#ffffff" stop-opacity="0.26"/>
      <stop offset="1" stop-color="#ffffff" stop-opacity="0"/>
    </radialGradient>
    
  </defs>
  <rect width="512" height="512" rx="116" fill="url(#gF)"/>
  <rect width="512" height="512" rx="116" fill="url(#hF)"/>
  <rect x="108" y="108" width="84" height="84" rx="26" fill="#ffffff" opacity="0.92"/>
  <rect x="214" y="108" width="84" height="84" rx="26" fill="#ffffff" opacity="0.92"/>
  <rect x="320" y="108" width="84" height="84" rx="26" fill="#ffffff" opacity="0.92"/>
  <rect x="108" y="214" width="84" height="84" rx="26" fill="#ffffff" opacity="0.92"/>
  <rect x="214" y="214" width="84" height="84" rx="26" fill="#ffffff" opacity="0.92"/>
  <rect x="320" y="214" width="84" height="84" rx="26" fill="#ffffff" opacity="0.26"/>
  <rect x="108" y="320" width="84" height="84" rx="26" fill="#ffffff" opacity="0.92"/>
  <rect x="214" y="320" width="84" height="84" rx="26" fill="#ffffff" opacity="0.26"/>
  <rect x="320" y="320" width="84" height="84" rx="26" fill="#ffffff" opacity="0.26"/>
  <circle cx="376" cy="376" r="96" fill="url(#gF)"/>
  <circle cx="376" cy="376" r="84" fill="#fde047"/>
  <path d="M340 376 L366 403 L414 349" fill="none" stroke="#4f46e5" stroke-width="24" stroke-linecap="round" stroke-linejoin="round"/></svg>